<svg width="23" height="28" viewBox="0 0 23 28" fill="none" xmlns="http://www.w3.org/2000/svg">
<path d="M16.1667 14.125V13.125C15.6144 13.125 15.1667 13.5727 15.1667 14.125H16.1667ZM22 14.125V15.125C22.3844 15.125 22.7348 14.9047 22.9013 14.5582C23.0678 14.2117 23.021 13.8005 22.7809 13.5003L22 14.125ZM16.1667 21.4167V22.4167C16.719 22.4167 17.1667 21.969 17.1667 21.4167H16.1667ZM6.83333 21.4167H5.83333C5.83333 21.969 6.28105 22.4167 6.83333 22.4167V21.4167ZM6.83333 14.125H7.83333C7.83333 13.5727 7.38562 13.125 6.83333 13.125V14.125ZM1 14.125L0.219131 13.5003C-0.0210048 13.8005 -0.0678232 14.2117 0.0986968 14.5582C0.265217 14.9047 0.615595 15.125 1 15.125L1 14.125ZM11.5 1L12.2809 0.375305C12.0911 0.13809 11.8038 0 11.5 0C11.1962 0 10.9089 0.13809 10.7191 0.375305L11.5 1ZM16.1667 15.125H22V13.125H16.1667V15.125ZM17.1667 21.4167V14.125H15.1667V21.4167H17.1667ZM6.83333 22.4167H16.1667V20.4167H6.83333V22.4167ZM5.83333 14.125V21.4167H7.83333V14.125H5.83333ZM1 15.125H6.83333V13.125H1V15.125ZM10.7191 0.375305L0.219131 13.5003L1.78087 14.7497L12.2809 1.6247L10.7191 0.375305ZM22.7809 13.5003L12.2809 0.375305L10.7191 1.6247L21.2191 14.7497L22.7809 13.5003Z" fill="white"/>
<path d="M21 27H2" stroke="white" stroke-width="2" stroke-linecap="round"/>
</svg>
